# xmcd
#
# Track frame offsets: 
#        150
#        12415
#        24135
#        37331
#        49179
#        59436
#        73212
#        84112
#        106170
#        122646
#        135281
#        147899
#        161826
#        177929
#        190233
#        209233
#        222835
#        237085
#        247487
#        260739
#        271631
#        282891
#
# Disc length: 3927 seconds
#
# Revision: 0
# Processed by: cddbd v1.5.2PL0 Copyright (c) Steve Scherf et al.
# Submitted via: ExactAudioCopyFreeDBPlugin 1.0
#
DISCID=4c0f5516
DTITLE=Freddy King - Texas Oil - The Complete Federal and El-Bee Sides
DYEAR=2016
DGENRE=Blues
TTITLE0=You Mean, Mean Woman
TTITLE1=I Hear Jingle Bells
TTITLE2=In The Open
TTITLE3=Out Front
TTITLE4=Swooshy
TTITLE5=Closed Door (High Rise)
TTITLE6=Texas Oil
TTITLE7=She Put The Whammy On Me
TTITLE8=I`m On My Way To Atlanta
TTITLE9=Over Drive
TTITLE10=Driving Sideways
TTITLE11=Sittin` On The Boat Dock
TTITLE12=Come On
TTITLE13=Do The President Twist 2
TTITLE14=(Let Your Love) Watch Over Me
TTITLE15=You Can`t Hide
TTITLE16=It`s Easy Child
TTITLE17=Just Pickin`
TTITLE18=Your Love Keeps A-Working On Me
TTITLE19=What About Love
TTITLE20=Country Boy
TTITLE21=That`s What You Think
EXTD=
EXTT0=
EXTT1=
EXTT2=
EXTT3=
EXTT4=
EXTT5=
EXTT6=
EXTT7=
EXTT8=
EXTT9=
EXTT10=
EXTT11=
EXTT12=
EXTT13=
EXTT14=
EXTT15=
EXTT16=
EXTT17=
EXTT18=
EXTT19=
EXTT20=
EXTT21=
PLAYORDER=
